<svg width="74" height="44" viewBox="0 0 74 44" fill="none" xmlns="http://www.w3.org/2000/svg">
<g filter="url(#filter0_d_1_20)">
<path d="M4.57812 35V0.875H15.5703C18.5859 0.875 21.2969 1.5625 23.7031 2.9375C26.1094 4.29688 27.9844 6.22656 29.3281 8.72656C30.6875 11.2109 31.375 14 31.3906 17.0938V18.6641C31.3906 21.7891 30.7266 24.5938 29.3984 27.0781C28.0859 29.5469 26.2266 31.4844 23.8203 32.8906C21.4297 34.2812 18.7578 34.9844 15.8047 35H4.57812ZM12.8047 7.22656V28.6719H15.6641C18.0234 28.6719 19.8359 27.8359 21.1016 26.1641C22.3672 24.4766 23 21.9766 23 18.6641V17.1875C23 13.8906 22.3672 11.4062 21.1016 9.73438C19.8359 8.0625 17.9922 7.22656 15.5703 7.22656H12.8047Z" fill="#85171A"/>
<path d="M50.8109 25.9297C50.8109 24.7266 50.3813 23.7891 49.5219 23.1172C48.6781 22.4453 47.1859 21.75 45.0453 21.0312C42.9047 20.3125 41.1547 19.6172 39.7953 18.9453C35.3734 16.7734 33.1625 13.7891 33.1625 9.99219C33.1625 8.10156 33.7094 6.4375 34.8031 5C35.9125 3.54688 37.475 2.42188 39.4906 1.625C41.5063 0.8125 43.7719 0.40625 46.2875 0.40625C48.7406 0.40625 50.9359 0.84375 52.8734 1.71875C54.8266 2.59375 56.3422 3.84375 57.4203 5.46875C58.4984 7.07812 59.0375 8.92188 59.0375 11H50.8344C50.8344 9.60938 50.4047 8.53125 49.5453 7.76562C48.7016 7 47.5531 6.61719 46.1 6.61719C44.6313 6.61719 43.4672 6.94531 42.6078 7.60156C41.7641 8.24219 41.3422 9.0625 41.3422 10.0625C41.3422 10.9375 41.8109 11.7344 42.7484 12.4531C43.6859 13.1562 45.3344 13.8906 47.6938 14.6562C50.0531 15.4062 51.9906 16.2188 53.5063 17.0938C57.1938 19.2188 59.0375 22.1484 59.0375 25.8828C59.0375 28.8672 57.9125 31.2109 55.6625 32.9141C53.4125 34.6172 50.3266 35.4688 46.4047 35.4688C43.6391 35.4688 41.1313 34.9766 38.8813 33.9922C36.6469 32.9922 34.9594 31.6328 33.8188 29.9141C32.6938 28.1797 32.1313 26.1875 32.1313 23.9375H40.3813C40.3813 25.7656 40.85 27.1172 41.7875 27.9922C42.7406 28.8516 44.2797 29.2812 46.4047 29.2812C47.7641 29.2812 48.8344 28.9922 49.6156 28.4141C50.4125 27.8203 50.8109 26.9922 50.8109 25.9297Z" fill="#DC2025"/>
<path d="M69.6219 35H61.4188V0.875H69.6219V35Z" fill="#FEBA08"/>
</g>
<defs>
<filter id="filter0_d_1_20" x="0.578125" y="0.40625" width="73.0438" height="43.0625" filterUnits="userSpaceOnUse" color-interpolation-filters="sRGB">
<feFlood flood-opacity="0" result="BackgroundImageFix"/>
<feColorMatrix in="SourceAlpha" type="matrix" values="0 0 0 0 0 0 0 0 0 0 0 0 0 0 0 0 0 0 127 0" result="hardAlpha"/>
<feOffset dy="4"/>
<feGaussianBlur stdDeviation="2"/>
<feComposite in2="hardAlpha" operator="out"/>
<feColorMatrix type="matrix" values="0 0 0 0 0 0 0 0 0 0 0 0 0 0 0 0 0 0 0.25 0"/>
<feBlend mode="normal" in2="BackgroundImageFix" result="effect1_dropShadow_1_20"/>
<feBlend mode="normal" in="SourceGraphic" in2="effect1_dropShadow_1_20" result="shape"/>
</filter>
</defs>
</svg>
